<svg xmlns="http://www.w3.org/2000/svg" xmlns:xlink="http://www.w3.org/1999/xlink" contentStyleType="text/css" height="467px" preserveAspectRatio="none" style="width:619px;height:467px;background:#FFFFFF;" version="1.1" viewBox="0 0 619 467" width="619px" zoomAndPan="magnify"><defs/><g><rect fill="#FFFFFF" height="37.0146" rx="12.5" ry="12.5" style="stroke:#000000;stroke-width:1.0;" width="79.5068" x="5" y="214.3269"/><text fill="#000000" font-family="Verdana" font-size="14" lengthAdjust="spacing" textLength="59.5068" x="15" y="238.4021">Backend</text><rect fill="#FFFFFF" height="37.0146" rx="12.5" ry="12.5" style="stroke:#000000;stroke-width:1.0;" width="65.9375" x="124.5068" y="134.2976"/><text fill="#000000" font-family="Verdana" font-size="14" lengthAdjust="spacing" textLength="45.9375" x="134.5068" y="158.3728">scripts</text><text fill="#000000" font-family="Verdana" font-size="14" lengthAdjust="spacing" textLength="26.8994" x="233.4443" y="20.0752">&#1050;&#1086;&#1076;</text><text fill="#000000" font-family="Verdana" font-size="14" lengthAdjust="spacing" textLength="4.9219" x="260.3438" y="20.0752">&#160;</text><text fill="#000000" font-family="Verdana" font-size="14" lengthAdjust="spacing" textLength="58.9121" x="265.2656" y="20.0752">&#1073;&#1101;&#1082;&#1077;&#1085;&#1076;&#1072;</text><path d="M190.4443,152.8049 L200.4443,152.8049 C215.4443,152.8049 205.4443,14.5073 220.4443,14.5073 L230.4443,14.5073 " fill="none" style="stroke:#000000;stroke-width:1.0;"/><rect fill="#FFFFFF" height="37.0146" rx="12.5" ry="12.5" style="stroke:#000000;stroke-width:1.0;" width="84.2373" x="230.4443" y="29.0146"/><text fill="#000000" font-family="Verdana" font-size="14" lengthAdjust="spacing" textLength="64.2373" x="240.4443" y="53.0898">config.py</text><text fill="#000000" font-family="Verdana" font-size="14" lengthAdjust="spacing" textLength="75.5508" x="357.6816" y="53.0898">&#1055;&#1086;&#1079;&#1074;&#1086;&#1083;&#1103;&#1077;&#1090;</text><text fill="#000000" font-family="Verdana" font-size="14" lengthAdjust="spacing" textLength="4.9219" x="433.2324" y="53.0898">&#160;</text><text fill="#000000" font-family="Verdana" font-size="14" lengthAdjust="spacing" textLength="72.8711" x="438.1543" y="53.0898">&#1085;&#1072;&#1089;&#1090;&#1088;&#1086;&#1080;&#1090;&#1100;</text><text fill="#000000" font-family="Verdana" font-size="14" lengthAdjust="spacing" textLength="4.9219" x="511.0254" y="53.0898">&#160;</text><text fill="#000000" font-family="Verdana" font-size="14" lengthAdjust="spacing" textLength="59.5068" x="515.9473" y="53.0898">Backend</text><path d="M314.6816,47.522 L324.6816,47.522 C339.6816,47.522 329.6816,47.522 344.6816,47.522 L354.6816,47.522 " fill="none" style="stroke:#000000;stroke-width:1.0;"/><path d="M190.4443,152.8049 L200.4443,152.8049 C215.4443,152.8049 205.4443,47.522 220.4443,47.522 L230.4443,47.522 " fill="none" style="stroke:#000000;stroke-width:1.0;"/><rect fill="#FFFFFF" height="37.0146" rx="12.5" ry="12.5" style="stroke:#000000;stroke-width:1.0;" width="48.0889" x="230.4443" y="76.0293"/><text fill="#000000" font-family="Verdana" font-size="14" lengthAdjust="spacing" textLength="28.0889" x="240.4443" y="100.1045">orm</text><text fill="#000000" font-family="Verdana" font-size="14" lengthAdjust="spacing" textLength="75.5508" x="321.5332" y="91.5972">&#1055;&#1086;&#1079;&#1074;&#1086;&#1083;&#1103;&#1077;&#1090;</text><text fill="#000000" font-family="Verdana" font-size="14" lengthAdjust="spacing" textLength="4.9219" x="397.084" y="91.5972">&#160;</text><text fill="#000000" font-family="Verdana" font-size="14" lengthAdjust="spacing" textLength="64.5176" x="402.0059" y="91.5972">&#1088;&#1072;&#1073;&#1086;&#1090;&#1072;&#1090;&#1100;</text><text fill="#000000" font-family="Verdana" font-size="14" lengthAdjust="spacing" textLength="4.9219" x="466.5234" y="91.5972">&#160;</text><text fill="#000000" font-family="Verdana" font-size="14" lengthAdjust="spacing" textLength="7.4785" x="471.4453" y="91.5972">&#1089;</text><text fill="#000000" font-family="Verdana" font-size="14" lengthAdjust="spacing" textLength="4.9219" x="478.9238" y="91.5972">&#160;</text><text fill="#000000" font-family="Verdana" font-size="14" lengthAdjust="spacing" textLength="25.1289" x="483.8457" y="91.5972">&#1041;&#1044;,</text><text fill="#000000" font-family="Verdana" font-size="14" lengthAdjust="spacing" textLength="4.9219" x="508.9746" y="91.5972">&#160;</text><text fill="#000000" font-family="Verdana" font-size="14" lengthAdjust="spacing" textLength="24.9785" x="513.8965" y="91.5972">&#1082;&#1072;&#1082;</text><text fill="#000000" font-family="Verdana" font-size="14" lengthAdjust="spacing" textLength="4.9219" x="538.875" y="91.5972">&#160;</text><text fill="#000000" font-family="Verdana" font-size="14" lengthAdjust="spacing" textLength="7.4785" x="543.7969" y="91.5972">&#1089;</text><text fill="#000000" font-family="Verdana" font-size="14" lengthAdjust="spacing" textLength="76.7539" x="321.5332" y="108.6118">&#1086;&#1073;&#1098;&#1077;&#1082;&#1090;&#1072;&#1084;&#1080;</text><path d="M278.5332,94.5366 L288.5332,94.5366 C303.5332,94.5366 293.5332,94.5366 308.5332,94.5366 L318.5332,94.5366 " fill="none" style="stroke:#000000;stroke-width:1.0;"/><path d="M190.4443,152.8049 L200.4443,152.8049 C215.4443,152.8049 205.4443,94.5366 220.4443,94.5366 L230.4443,94.5366 " fill="none" style="stroke:#000000;stroke-width:1.0;"/><rect fill="#FFFFFF" height="37.0146" rx="12.5" ry="12.5" style="stroke:#000000;stroke-width:1.0;" width="64.4814" x="230.4443" y="188.0732"/><text fill="#000000" font-family="Verdana" font-size="14" lengthAdjust="spacing" textLength="44.4814" x="240.4443" y="212.1484">routes</text><rect fill="#FFFFFF" height="37.0146" rx="12.5" ry="12.5" style="stroke:#000000;stroke-width:1.0;" width="51.6436" x="334.9258" y="117.5513"/><text fill="#000000" font-family="Verdana" font-size="14" lengthAdjust="spacing" textLength="31.6436" x="344.9258" y="141.6265">auth</text><text fill="#000000" font-family="Verdana" font-size="14" lengthAdjust="spacing" textLength="93.1533" x="429.5693" y="141.6265">&#1040;&#1074;&#1090;&#1086;&#1088;&#1080;&#1079;&#1072;&#1094;&#1080;&#1103;</text><path d="M386.5693,136.0586 L396.5693,136.0586 C411.5693,136.0586 401.5693,136.0586 416.5693,136.0586 L426.5693,136.0586 " fill="none" style="stroke:#000000;stroke-width:1.0;"/><path d="M294.9258,206.5806 L304.9258,206.5806 C319.9258,206.5806 309.9258,136.0586 324.9258,136.0586 L334.9258,136.0586 " fill="none" style="stroke:#000000;stroke-width:1.0;"/><rect fill="#FFFFFF" height="37.0146" rx="12.5" ry="12.5" style="stroke:#000000;stroke-width:1.0;" width="54.0293" x="334.9258" y="164.5659"/><text fill="#000000" font-family="Verdana" font-size="14" lengthAdjust="spacing" textLength="34.0293" x="344.9258" y="188.6411">stats</text><text fill="#000000" font-family="Verdana" font-size="14" lengthAdjust="spacing" textLength="36.7432" x="431.9551" y="188.6411">&#1054;&#1095;&#1082;&#1080;</text><text fill="#000000" font-family="Verdana" font-size="14" lengthAdjust="spacing" textLength="4.9219" x="468.6982" y="188.6411">&#160;</text><text fill="#000000" font-family="Verdana" font-size="14" lengthAdjust="spacing" textLength="8.9619" x="473.6201" y="188.6411">&#1080;</text><text fill="#000000" font-family="Verdana" font-size="14" lengthAdjust="spacing" textLength="4.9219" x="482.582" y="188.6411">&#160;</text><text fill="#000000" font-family="Verdana" font-size="14" lengthAdjust="spacing" textLength="51.9189" x="487.5039" y="188.6411">&#1087;&#1088;&#1086;&#1095;&#1080;&#1077;</text><text fill="#000000" font-family="Verdana" font-size="14" lengthAdjust="spacing" textLength="4.9219" x="539.4229" y="188.6411">&#160;</text><text fill="#000000" font-family="Verdana" font-size="14" lengthAdjust="spacing" textLength="56.6631" x="544.3447" y="188.6411">&#1089;&#1090;&#1072;&#1090;&#1091;&#1089;&#1099;</text><path d="M388.9551,183.0732 L398.9551,183.0732 C413.9551,183.0732 403.9551,183.0732 418.9551,183.0732 L428.9551,183.0732 " fill="none" style="stroke:#000000;stroke-width:1.0;"/><path d="M294.9258,206.5806 L304.9258,206.5806 C319.9258,206.5806 309.9258,183.0732 324.9258,183.0732 L334.9258,183.0732 " fill="none" style="stroke:#000000;stroke-width:1.0;"/><rect fill="#FFFFFF" height="37.0146" rx="12.5" ry="12.5" style="stroke:#000000;stroke-width:1.0;" width="81.749" x="334.9258" y="211.5806"/><text fill="#000000" font-family="Verdana" font-size="14" lengthAdjust="spacing" textLength="61.749" x="344.9258" y="235.6558">analytics</text><text fill="#000000" font-family="Verdana" font-size="14" lengthAdjust="spacing" textLength="71.3877" x="459.6748" y="235.6558">&#1056;&#1077;&#1079;&#1091;&#1083;&#1100;&#1090;&#1072;&#1090;</text><text fill="#000000" font-family="Verdana" font-size="14" lengthAdjust="spacing" textLength="4.9219" x="531.0625" y="235.6558">&#160;</text><text fill="#000000" font-family="Verdana" font-size="14" lengthAdjust="spacing" textLength="76.542" x="535.9844" y="235.6558">&#1072;&#1085;&#1072;&#1083;&#1080;&#1090;&#1080;&#1082;&#1080;</text><path d="M416.6748,230.0879 L426.6748,230.0879 C441.6748,230.0879 431.6748,230.0879 446.6748,230.0879 L456.6748,230.0879 " fill="none" style="stroke:#000000;stroke-width:1.0;"/><path d="M294.9258,206.5806 L304.9258,206.5806 C319.9258,206.5806 309.9258,230.0879 324.9258,230.0879 L334.9258,230.0879 " fill="none" style="stroke:#000000;stroke-width:1.0;"/><rect fill="#FFFFFF" height="37.0146" rx="12.5" ry="12.5" style="stroke:#000000;stroke-width:1.0;" width="52.1973" x="334.9258" y="258.5952"/><text fill="#000000" font-family="Verdana" font-size="14" lengthAdjust="spacing" textLength="32.1973" x="344.9258" y="282.6704">polls</text><text fill="#000000" font-family="Verdana" font-size="14" lengthAdjust="spacing" textLength="55.7607" x="430.123" y="282.6704">&#1054;&#1087;&#1088;&#1086;&#1089;&#1099;</text><path d="M387.123,277.1025 L397.123,277.1025 C412.123,277.1025 402.123,277.1025 417.123,277.1025 L427.123,277.1025 " fill="none" style="stroke:#000000;stroke-width:1.0;"/><path d="M294.9258,206.5806 L304.9258,206.5806 C319.9258,206.5806 309.9258,277.1025 324.9258,277.1025 L334.9258,277.1025 " fill="none" style="stroke:#000000;stroke-width:1.0;"/><path d="M190.4443,152.8049 L200.4443,152.8049 C215.4443,152.8049 205.4443,206.5806 220.4443,206.5806 L230.4443,206.5806 " fill="none" style="stroke:#000000;stroke-width:1.0;"/><path d="M84.5068,232.8342 L94.5068,232.8342 C109.5068,232.8342 99.5068,152.8049 114.5068,152.8049 L124.5068,152.8049 " fill="none" style="stroke:#000000;stroke-width:1.0;"/><rect fill="#FFFFFF" height="37.0146" rx="12.5" ry="12.5" style="stroke:#000000;stroke-width:1.0;" width="68.6787" x="124.5068" y="362.1318"/><text fill="#000000" font-family="Verdana" font-size="14" lengthAdjust="spacing" textLength="48.6787" x="134.5068" y="386.207">vendor</text><text fill="#000000" font-family="Verdana" font-size="14" lengthAdjust="spacing" textLength="53.6211" x="236.1855" y="315.6851">&#1055;&#1072;&#1082;&#1077;&#1090;&#1099;</text><text fill="#000000" font-family="Verdana" font-size="14" lengthAdjust="spacing" textLength="4.9219" x="289.8066" y="315.6851">&#160;</text><text fill="#000000" font-family="Verdana" font-size="14" lengthAdjust="spacing" textLength="82.8926" x="294.7285" y="315.6851">&#1088;&#1072;&#1079;&#1088;&#1072;&#1073;&#1086;&#1090;&#1082;&#1080;</text><path d="M193.1855,380.6392 L203.1855,380.6392 C218.1855,380.6392 208.1855,310.1172 223.1855,310.1172 L233.1855,310.1172 " fill="none" style="stroke:#000000;stroke-width:1.0;"/><rect fill="#FFFFFF" height="37.0146" rx="12.5" ry="12.5" style="stroke:#000000;stroke-width:1.0;" width="113.1123" x="233.1855" y="324.6245"/><text fill="#000000" font-family="Verdana" font-size="14" lengthAdjust="spacing" textLength="28.3828" x="243.1855" y="348.6997">SQL</text><text fill="#000000" font-family="Verdana" font-size="14" lengthAdjust="spacing" textLength="4.9219" x="271.5684" y="348.6997">&#160;</text><text fill="#000000" font-family="Verdana" font-size="14" lengthAdjust="spacing" textLength="59.8076" x="276.4902" y="348.6997">Alchemy</text><path d="M193.1855,380.6392 L203.1855,380.6392 C218.1855,380.6392 208.1855,343.1318 223.1855,343.1318 L233.1855,343.1318 " fill="none" style="stroke:#000000;stroke-width:1.0;"/><rect fill="#FFFFFF" height="37.0146" rx="12.5" ry="12.5" style="stroke:#000000;stroke-width:1.0;" width="55.875" x="233.1855" y="371.6392"/><text fill="#000000" font-family="Verdana" font-size="14" lengthAdjust="spacing" textLength="35.875" x="243.1855" y="395.7144">Flask</text><path d="M193.1855,380.6392 L203.1855,380.6392 C218.1855,380.6392 208.1855,390.1465 223.1855,390.1465 L233.1855,390.1465 " fill="none" style="stroke:#000000;stroke-width:1.0;"/><rect fill="#FFFFFF" height="37.0146" rx="12.5" ry="12.5" style="stroke:#000000;stroke-width:1.0;" width="79.3701" x="233.1855" y="418.6538"/><text fill="#000000" font-family="Verdana" font-size="14" lengthAdjust="spacing" textLength="59.3701" x="243.1855" y="442.729">Pyndatic</text><path d="M193.1855,380.6392 L203.1855,380.6392 C218.1855,380.6392 208.1855,437.1611 223.1855,437.1611 L233.1855,437.1611 " fill="none" style="stroke:#000000;stroke-width:1.0;"/><path d="M84.5068,232.8342 L94.5068,232.8342 C109.5068,232.8342 99.5068,380.6392 114.5068,380.6392 L124.5068,380.6392 " fill="none" style="stroke:#000000;stroke-width:1.0;"/><!--SRC=[xLRTRXD75BxVfpYz0wi4EmqDjL2Ls912i8FB9kbbDTaTsrElPvRPMGUtYbI2r4g52f2uwaNRHp28A5PeqrUOVQEUcVN6wpY1_FYkZM9xVhxpdNE-ENjsbY95fEeoxdT9w3YVg3RjKWW3mhZZ5A12l0xblbCeGEH95ge8XuLlGV-c3_Kxq6-IN_M1tjD_wtTwOBR04xp9MdDXtymCyWz4xkkt-Fq-UQ7tabr0z21vakmcF-BY47-Vv_mKGCZkwRPeCz1lz66oYnp6Cda2-fL-_IbW70DzOEU76DSl6DM1GUc_zD3oIX4hQkCl08bLsuwCbvVwBG8FaNg8tWR9JnZKYnI7wgGfM-3loS_ePGZc_nyJFSw7UWzCCZQSfpXwDlB0IT1Np1jR_uaHxITFCPNdAHmmE9H2lpSY8D516cW1GX44EQyZNoarz50d8PrCe87H7rq_IwNPpmaquWFtwnei1nwUh3qKM0b8rB6ZHf_x18Dq76S9QO_AO6coAaP_joBL3-YN3g2KGi4FE01xSYsKbljL4GW9ssscgDrP4LobQri1WexMrWXMs2QLFafa5-_sGofhZ7SoT9mIu18zJc3MrjlCwt0QHL2oQtKYMup33PpiuCSNNjobF0lG8w5YWezcnncATdN7VZSnAohF06nJufy9g9WAw17E9E-oxodCpt_4qdouy3FJEddCkd7t6-QhDdnMB5h4hUkZut2Y3kCXaQGBorAAxHfM3mj5c9Tk33dvlCRxjscJn86QEgWfH5rm4ON4e_uHjYfYoQZCOMkiIGDCqbMIADhgOrQH29YVWpImqfZ7Gi9LW_W-uoqe5NFxBdqKK-vHGsNqgWY9uf-SdDicljWs54qIHFcqDY9QeOguHZ9G4YiiBvkdM8-flfNxj8Ak43bPZDE1d5JpKqBkv0_3k24oTNpSTXBus68oXMvCx5QPz0BgLziuyx8I_a0esJa1F2G-YoFuOf8E-qFqOIqkdxfrigoKP5lObZyMyQaCBgPBXS8ESX6AbV4JVqxBk-CMS5vBq-tmcUXOurpBouFkuMkqWMIaHITWeyexyLYcx2Nh4NKPUnG7oyc_E4Ey5J3lGkPhuc95yM3hEumvBTwf8jsPQ3jZTMTGpgxAf3xxCpDfdzNnyanOgZDXkJCJbdipOLcx10js_og9Q4gsVgvcyVyb-Bzw2Mu4U2NPgDVGcOpC3R8qDr-SNvXRlE8IXTUI48gBK5eebswMIujGT- -3sRxgNFcgKOC8Nx4U1Pz5wHiExQywgwH7u67C5UlICZm8AL-zVJzRW3kynwJWvkhgh6xMnu3F5wvLcF4eCHBOh3kZ6nXQUC9S1ygmiRvoxQPJ8xmLOrCh0-KElkIvadtSS_y5]--></g></svg>