<svg xmlns="http://www.w3.org/2000/svg" xmlns:xlink="http://www.w3.org/1999/xlink" contentStyleType="text/css" height="557px" preserveAspectRatio="none" style="width:344px;height:557px;background:#FFFFFF;" version="1.1" viewBox="0 0 344 557" width="344px" zoomAndPan="magnify"><defs/><g><rect fill="none" height="29.0679" style="stroke:#181818;stroke-width:0.5;" width="141.5715" x="34" y="10"/><text fill="#000000" font-family="sans-serif" font-size="14" lengthAdjust="spacing" textLength="131.5715" x="39" y="29.9659">/auth/login &lt;&lt;put&gt;&gt;</text><line style="stroke:#000000;stroke-width:1.0;" x1="10" x2="34" y1="24.534" y2="24.534"/><line style="stroke:#000000;stroke-width:1.0;" x1="175.5715" x2="332.0173" y1="24.534" y2="24.534"/><line style="stroke:#000000;stroke-width:1.0;" x1="34" x2="34" y1="63.6019" y2="63.6019"/><rect fill="none" height="29.0679" style="stroke:#181818;stroke-width:0.5;" width="84.3117" x="34" y="49.0679"/><text fill="#000000" font-family="sans-serif" font-size="14" lengthAdjust="spacing" textLength="70.6717" x="39" y="69.0339">/messages</text><line style="stroke:#000000;stroke-width:1.0;" x1="118.3117" x2="138.3117" y1="63.6019" y2="63.6019"/><rect fill="none" height="29.0679" style="stroke:#181818;stroke-width:0.5;" width="63.5918" x="162.3117" y="49.0679"/><text fill="#000000" font-family="sans-serif" font-size="14" lengthAdjust="spacing" textLength="53.5918" x="167.3117" y="69.0339">&lt;&lt;get&gt;&gt;</text><line style="stroke:#000000;stroke-width:1.0;" x1="138.3117" x2="162.3117" y1="63.6019" y2="63.6019"/><line style="stroke:#000000;stroke-width:1.0;" x1="225.9035" x2="257.1835" y1="63.6019" y2="63.6019"/><rect fill="none" height="29.0679" style="stroke:#181818;stroke-width:0.5;" width="70.8718" x="162.3117" y="88.1358"/><text fill="#000000" font-family="sans-serif" font-size="14" lengthAdjust="spacing" textLength="60.8718" x="167.3117" y="108.1018">&lt;&lt;post&gt;&gt;</text><line style="stroke:#000000;stroke-width:1.0;" x1="233.1835" x2="233.1835" y1="102.6698" y2="102.6698"/><path d="M150.3117,90.6698 C150.3117,99.6698 153.3117,102.6698 162.3117,102.6698 " fill="none" style="stroke:#000000;stroke-width:1.0;"/><line style="stroke:#000000;stroke-width:1.0;" x1="150.3117" x2="150.3117" y1="75.6019" y2="90.6698"/><path d="M138.3117,63.6019 C147.3117,63.6019 150.3117,66.6019 150.3117,75.6019 " fill="none" style="stroke:#000000;stroke-width:1.0;"/><path d="M245.1835,90.6698 C245.1835,99.6698 242.1835,102.6698 233.1835,102.6698 " fill="none" style="stroke:#000000;stroke-width:1.0;"/><line style="stroke:#000000;stroke-width:1.0;" x1="245.1835" x2="245.1835" y1="75.6019" y2="90.6698"/><path d="M245.1835,75.6019 C245.1835,66.6019 248.1835,63.6019 257.1835,63.6019 " fill="none" style="stroke:#000000;stroke-width:1.0;"/><path d="M22,51.6019 C22,60.6019 25,63.6019 34,63.6019 " fill="none" style="stroke:#000000;stroke-width:1.0;"/><line style="stroke:#000000;stroke-width:1.0;" x1="257.1835" x2="308.0173" y1="63.6019" y2="63.6019"/><path d="M280.6004,63.6019 L280.6004,60.6019 L286.6004,63.6019 L280.6004,66.6019 L280.6004,63.6019 " fill="#000000" style="stroke:#000000;stroke-width:1.0;"/><path d="M320.0173,51.6019 C320.0173,60.6019 317.0173,63.6019 308.0173,63.6019 " fill="none" style="stroke:#000000;stroke-width:1.0;"/><rect fill="none" height="29.0679" style="stroke:#181818;stroke-width:0.5;" width="171.5034" x="34" y="127.2038"/><text fill="#000000" font-family="sans-serif" font-size="14" lengthAdjust="spacing" textLength="161.5034" x="39" y="147.1697">/users/{user_id} &lt;&lt;get&gt;&gt;</text><path d="M22,129.7377 C22,138.7377 25,141.7377 34,141.7377 " fill="none" style="stroke:#000000;stroke-width:1.0;"/><line style="stroke:#000000;stroke-width:1.0;" x1="205.5034" x2="308.0173" y1="141.7377" y2="141.7377"/><path d="M254.7603,141.7377 L254.7603,138.7377 L260.7603,141.7377 L254.7603,144.7377 L254.7603,141.7377 " fill="#000000" style="stroke:#000000;stroke-width:1.0;"/><path d="M320.0173,129.7377 C320.0173,138.7377 317.0173,141.7377 308.0173,141.7377 " fill="none" style="stroke:#000000;stroke-width:1.0;"/><rect fill="none" height="29.0679" style="stroke:#181818;stroke-width:0.5;" width="213.1392" x="34" y="166.2717"/><text fill="#000000" font-family="sans-serif" font-size="14" lengthAdjust="spacing" textLength="203.1392" x="39" y="186.2376">/teachers/{teacher_id} &lt;&lt;get&gt;&gt;</text><path d="M22,168.8056 C22,177.8056 25,180.8056 34,180.8056 " fill="none" style="stroke:#000000;stroke-width:1.0;"/><line style="stroke:#000000;stroke-width:1.0;" x1="247.1392" x2="308.0173" y1="180.8056" y2="180.8056"/><path d="M275.5782,180.8056 L275.5782,177.8056 L281.5782,180.8056 L275.5782,183.8056 L275.5782,180.8056 " fill="#000000" style="stroke:#000000;stroke-width:1.0;"/><path d="M320.0173,168.8056 C320.0173,177.8056 317.0173,180.8056 308.0173,180.8056 " fill="none" style="stroke:#000000;stroke-width:1.0;"/><rect fill="none" height="29.0679" style="stroke:#181818;stroke-width:0.5;" width="114.7196" x="34" y="205.3396"/><text fill="#000000" font-family="sans-serif" font-size="14" lengthAdjust="spacing" textLength="104.7196" x="39" y="225.3055">/scores &lt;&lt;get&gt;&gt;</text><path d="M22,207.8735 C22,216.8735 25,219.8735 34,219.8735 " fill="none" style="stroke:#000000;stroke-width:1.0;"/><line style="stroke:#000000;stroke-width:1.0;" x1="148.7196" x2="308.0173" y1="219.8735" y2="219.8735"/><path d="M226.3684,219.8735 L226.3684,216.8735 L232.3684,219.8735 L226.3684,222.8735 L226.3684,219.8735 " fill="#000000" style="stroke:#000000;stroke-width:1.0;"/><path d="M320.0173,207.8735 C320.0173,216.8735 317.0173,219.8735 308.0173,219.8735 " fill="none" style="stroke:#000000;stroke-width:1.0;"/><rect fill="none" height="29.0679" style="stroke:#181818;stroke-width:0.5;" width="80.8537" x="34" y="244.4075"/><text fill="#000000" font-family="sans-serif" font-size="14" lengthAdjust="spacing" textLength="70.8537" x="39" y="264.3734">/prize_cost</text><path d="M22,246.9415 C22,255.9415 25,258.9415 34,258.9415 " fill="none" style="stroke:#000000;stroke-width:1.0;"/><line style="stroke:#000000;stroke-width:1.0;" x1="114.8537" x2="308.0173" y1="258.9415" y2="258.9415"/><path d="M209.4355,258.9415 L209.4355,255.9415 L215.4355,258.9415 L209.4355,261.9415 L209.4355,258.9415 " fill="#000000" style="stroke:#000000;stroke-width:1.0;"/><path d="M320.0173,246.9415 C320.0173,255.9415 317.0173,258.9415 308.0173,258.9415 " fill="none" style="stroke:#000000;stroke-width:1.0;"/><line style="stroke:#000000;stroke-width:1.0;" x1="34" x2="34" y1="298.0094" y2="298.0094"/><rect fill="none" height="29.0679" style="stroke:#181818;stroke-width:0.5;" width="49.1859" x="34" y="283.4754"/><text fill="#000000" font-family="sans-serif" font-size="14" lengthAdjust="spacing" textLength="39.1859" x="39" y="303.4414">prizes</text><line style="stroke:#000000;stroke-width:1.0;" x1="83.1859" x2="103.1859" y1="298.0094" y2="298.0094"/><rect fill="none" height="29.0679" style="stroke:#181818;stroke-width:0.5;" width="63.5918" x="127.1859" y="283.4754"/><text fill="#000000" font-family="sans-serif" font-size="14" lengthAdjust="spacing" textLength="53.5918" x="132.1859" y="303.4414">&lt;&lt;get&gt;&gt;</text><line style="stroke:#000000;stroke-width:1.0;" x1="103.1859" x2="127.1859" y1="298.0094" y2="298.0094"/><line style="stroke:#000000;stroke-width:1.0;" x1="190.7776" x2="222.0576" y1="298.0094" y2="298.0094"/><rect fill="none" height="29.0679" style="stroke:#181818;stroke-width:0.5;" width="70.8718" x="127.1859" y="322.5433"/><text fill="#000000" font-family="sans-serif" font-size="14" lengthAdjust="spacing" textLength="60.8718" x="132.1859" y="342.5093">&lt;&lt;post&gt;&gt;</text><line style="stroke:#000000;stroke-width:1.0;" x1="198.0576" x2="198.0576" y1="337.0773" y2="337.0773"/><path d="M115.1859,325.0773 C115.1859,334.0773 118.1859,337.0773 127.1859,337.0773 " fill="none" style="stroke:#000000;stroke-width:1.0;"/><line style="stroke:#000000;stroke-width:1.0;" x1="115.1859" x2="115.1859" y1="310.0094" y2="325.0773"/><path d="M103.1859,298.0094 C112.1859,298.0094 115.1859,301.0094 115.1859,310.0094 " fill="none" style="stroke:#000000;stroke-width:1.0;"/><path d="M210.0576,325.0773 C210.0576,334.0773 207.0576,337.0773 198.0576,337.0773 " fill="none" style="stroke:#000000;stroke-width:1.0;"/><line style="stroke:#000000;stroke-width:1.0;" x1="210.0576" x2="210.0576" y1="310.0094" y2="325.0773"/><path d="M210.0576,310.0094 C210.0576,301.0094 213.0576,298.0094 222.0576,298.0094 " fill="none" style="stroke:#000000;stroke-width:1.0;"/><path d="M22,286.0094 C22,295.0094 25,298.0094 34,298.0094 " fill="none" style="stroke:#000000;stroke-width:1.0;"/><line style="stroke:#000000;stroke-width:1.0;" x1="222.0576" x2="308.0173" y1="298.0094" y2="298.0094"/><path d="M263.0375,298.0094 L263.0375,295.0094 L269.0375,298.0094 L263.0375,301.0094 L263.0375,298.0094 " fill="#000000" style="stroke:#000000;stroke-width:1.0;"/><path d="M320.0173,286.0094 C320.0173,295.0094 317.0173,298.0094 308.0173,298.0094 " fill="none" style="stroke:#000000;stroke-width:1.0;"/><line style="stroke:#000000;stroke-width:1.0;" x1="34" x2="34" y1="376.1452" y2="376.1452"/><rect fill="none" height="29.0679" style="stroke:#181818;stroke-width:0.5;" width="69.7798" x="34" y="361.6113"/><text fill="#000000" font-family="sans-serif" font-size="14" lengthAdjust="spacing" textLength="56.1398" x="39" y="381.5772">/courses</text><line style="stroke:#000000;stroke-width:1.0;" x1="103.7798" x2="123.7798" y1="376.1452" y2="376.1452"/><rect fill="none" height="29.0679" style="stroke:#181818;stroke-width:0.5;" width="88.5117" x="147.7798" y="361.6113"/><text fill="#000000" font-family="sans-serif" font-size="14" lengthAdjust="spacing" textLength="78.5117" x="152.7798" y="381.5772">/{course_id}</text><line style="stroke:#000000;stroke-width:1.0;" x1="123.7798" x2="147.7798" y1="376.1452" y2="376.1452"/><line style="stroke:#000000;stroke-width:1.0;" x1="236.2915" x2="260.2915" y1="376.1452" y2="376.1452"/><rect fill="none" height="29.0679" style="stroke:#181818;stroke-width:0.5;" width="63.5918" x="147.7798" y="400.6792"/><text fill="#000000" font-family="sans-serif" font-size="14" lengthAdjust="spacing" textLength="53.5918" x="152.7798" y="420.6451">&lt;&lt;get&gt;&gt;</text><line style="stroke:#000000;stroke-width:1.0;" x1="211.3716" x2="236.2915" y1="415.2131" y2="415.2131"/><path d="M135.7798,403.2131 C135.7798,412.2131 138.7798,415.2131 147.7798,415.2131 " fill="none" style="stroke:#000000;stroke-width:1.0;"/><line style="stroke:#000000;stroke-width:1.0;" x1="135.7798" x2="135.7798" y1="388.1452" y2="403.2131"/><path d="M123.7798,376.1452 C132.7798,376.1452 135.7798,379.1452 135.7798,388.1452 " fill="none" style="stroke:#000000;stroke-width:1.0;"/><path d="M248.2915,403.2131 C248.2915,412.2131 245.2915,415.2131 236.2915,415.2131 " fill="none" style="stroke:#000000;stroke-width:1.0;"/><line style="stroke:#000000;stroke-width:1.0;" x1="248.2915" x2="248.2915" y1="388.1452" y2="403.2131"/><path d="M248.2915,388.1452 C248.2915,379.1452 251.2915,376.1452 260.2915,376.1452 " fill="none" style="stroke:#000000;stroke-width:1.0;"/><path d="M22,364.1452 C22,373.1452 25,376.1452 34,376.1452 " fill="none" style="stroke:#000000;stroke-width:1.0;"/><line style="stroke:#000000;stroke-width:1.0;" x1="260.2915" x2="308.0173" y1="376.1452" y2="376.1452"/><path d="M282.1544,376.1452 L282.1544,373.1452 L288.1544,376.1452 L282.1544,379.1452 L282.1544,376.1452 " fill="#000000" style="stroke:#000000;stroke-width:1.0;"/><path d="M320.0173,364.1452 C320.0173,373.1452 317.0173,376.1452 308.0173,376.1452 " fill="none" style="stroke:#000000;stroke-width:1.0;"/><rect fill="none" height="29.0679" style="stroke:#181818;stroke-width:0.5;" width="110.7296" x="34" y="439.7471"/><text fill="#000000" font-family="sans-serif" font-size="14" lengthAdjust="spacing" textLength="100.7296" x="39" y="459.713">/polls &lt;&lt;post&gt;&gt;</text><path d="M22,442.281 C22,451.281 25,454.281 34,454.281 " fill="none" style="stroke:#000000;stroke-width:1.0;"/><line style="stroke:#000000;stroke-width:1.0;" x1="144.7296" x2="308.0173" y1="454.281" y2="454.281"/><path d="M224.3735,454.281 L224.3735,451.281 L230.3735,454.281 L224.3735,457.281 L224.3735,454.281 " fill="#000000" style="stroke:#000000;stroke-width:1.0;"/><path d="M320.0173,442.281 C320.0173,451.281 317.0173,454.281 308.0173,454.281 " fill="none" style="stroke:#000000;stroke-width:1.0;"/><line style="stroke:#000000;stroke-width:1.0;" x1="34" x2="34" y1="493.349" y2="493.349"/><rect fill="none" height="29.0679" style="stroke:#181818;stroke-width:0.5;" width="135.1455" x="34" y="478.815"/><text fill="#000000" font-family="sans-serif" font-size="14" lengthAdjust="spacing" textLength="125.1455" x="39" y="498.7809">/teacher_estimates</text><line style="stroke:#000000;stroke-width:1.0;" x1="169.1455" x2="189.1455" y1="493.349" y2="493.349"/><rect fill="none" height="29.0679" style="stroke:#181818;stroke-width:0.5;" width="63.5918" x="213.1455" y="478.815"/><text fill="#000000" font-family="sans-serif" font-size="14" lengthAdjust="spacing" textLength="53.5918" x="218.1455" y="498.7809">&lt;&lt;get&gt;&gt;</text><line style="stroke:#000000;stroke-width:1.0;" x1="189.1455" x2="213.1455" y1="493.349" y2="493.349"/><line style="stroke:#000000;stroke-width:1.0;" x1="276.7373" x2="308.0173" y1="493.349" y2="493.349"/><rect fill="none" height="29.0679" style="stroke:#181818;stroke-width:0.5;" width="70.8718" x="213.1455" y="517.8829"/><text fill="#000000" font-family="sans-serif" font-size="14" lengthAdjust="spacing" textLength="60.8718" x="218.1455" y="537.8489">&lt;&lt;post&gt;&gt;</text><line style="stroke:#000000;stroke-width:1.0;" x1="284.0173" x2="284.0173" y1="532.4169" y2="532.4169"/><path d="M201.1455,520.4169 C201.1455,529.4169 204.1455,532.4169 213.1455,532.4169 " fill="none" style="stroke:#000000;stroke-width:1.0;"/><line style="stroke:#000000;stroke-width:1.0;" x1="201.1455" x2="201.1455" y1="505.349" y2="520.4169"/><path d="M189.1455,493.349 C198.1455,493.349 201.1455,496.349 201.1455,505.349 " fill="none" style="stroke:#000000;stroke-width:1.0;"/><path d="M296.0173,520.4169 C296.0173,529.4169 293.0173,532.4169 284.0173,532.4169 " fill="none" style="stroke:#000000;stroke-width:1.0;"/><line style="stroke:#000000;stroke-width:1.0;" x1="296.0173" x2="296.0173" y1="505.349" y2="520.4169"/><path d="M296.0173,505.349 C296.0173,496.349 299.0173,493.349 308.0173,493.349 " fill="none" style="stroke:#000000;stroke-width:1.0;"/><line style="stroke:#000000;stroke-width:1.0;" x1="308.0173" x2="308.0173" y1="493.349" y2="493.349"/><path d="M22,481.349 C22,490.349 25,493.349 34,493.349 " fill="none" style="stroke:#000000;stroke-width:1.0;"/><line style="stroke:#000000;stroke-width:1.0;" x1="22" x2="22" y1="36.534" y2="481.349"/><path d="M10,24.534 C19,24.534 22,27.534 22,36.534 " fill="none" style="stroke:#000000;stroke-width:1.0;"/><path d="M320.0173,481.349 C320.0173,490.349 317.0173,493.349 308.0173,493.349 " fill="none" style="stroke:#000000;stroke-width:1.0;"/><line style="stroke:#000000;stroke-width:1.0;" x1="320.0173" x2="320.0173" y1="36.534" y2="481.349"/><path d="M320.0173,36.534 C320.0173,27.534 323.0173,24.534 332.0173,24.534 " fill="none" style="stroke:#000000;stroke-width:1.0;"/><!--SRC=[RP5FQy904CNl-odcg0UD4QaIHAIrBQYXqbHFWcoJQLo8ks5tLled_UwT66kXUDhPUMz-yzYTEfAMBERuBWBfQHyK9bSQMkDnwMaoQLV10PsJERgwboFtAjQCQqJlqBfW-rMVEvLjl-7N513ATD-ev_AVmQN6ClPoBwtwn5tAwEfKkciBK-EjgyCmjgbFrEfiPKTfYgAcDYEN73jqf0wIhc7557NMF89O5LBJEbx2aRCheo7izdlzGNVOIYH1WYNqXX0Eed0KXKE8amNKSbkq7bTBS9meHSYK8wjUFV5yMypbKSAprxmU8tWgKSzdYzy6tEkZiaOVK9EOR-8_mysWSwlgZPQJm2OMCtoJlY2UI4scT1x1-kMXCn9BgNFFFnG1Qd5dc6i_M4j-0000]--></g></svg>