<svg xmlns="http://www.w3.org/2000/svg" xmlns:xlink="http://www.w3.org/1999/xlink" contentStyleType="text/css" height="768px" preserveAspectRatio="none" style="width:638px;height:768px;background:#FFFFFF;" version="1.1" viewBox="0 0 638 768" width="638px" zoomAndPan="magnify"><defs/><g><line style="stroke:#181818;stroke-width:0.5;stroke-dasharray:5.0,5.0;" x1="23" x2="23" y1="84.0679" y2="685.0702"/><line style="stroke:#181818;stroke-width:0.5;stroke-dasharray:5.0,5.0;" x1="601.0774" x2="601.0774" y1="84.0679" y2="685.0702"/><text fill="#000000" font-family="sans-serif" font-size="14" lengthAdjust="spacing" textLength="30.6179" x="5" y="79.9659">User</text><ellipse cx="23.3089" cy="13.5" fill="#E2E2F0" rx="8" ry="8" style="stroke:#181818;stroke-width:0.5;"/><path d="M23.3089,21.5 L23.3089,48.5 M10.3089,29.5 L36.3089,29.5 M23.3089,48.5 L10.3089,63.5 M23.3089,48.5 L36.3089,63.5 " fill="none" style="stroke:#181818;stroke-width:0.5;"/><text fill="#000000" font-family="sans-serif" font-size="14" lengthAdjust="spacing" textLength="30.6179" x="5" y="699.0361">User</text><ellipse cx="23.3089" cy="711.6381" fill="#E2E2F0" rx="8" ry="8" style="stroke:#181818;stroke-width:0.5;"/><path d="M23.3089,719.6381 L23.3089,746.6381 M10.3089,727.6381 L36.3089,727.6381 M23.3089,746.6381 L10.3089,761.6381 M23.3089,746.6381 L36.3089,761.6381 " fill="none" style="stroke:#181818;stroke-width:0.5;"/><text fill="#000000" font-family="sans-serif" font-size="14" lengthAdjust="spacing" textLength="42.1538" x="577.5005" y="79.9659">Server</text><path d="M581.0774,37 L581.0774,61 M581.0774,49 L598.0774,49 " fill="none" style="stroke:#181818;stroke-width:0.5;"/><ellipse cx="610.0774" cy="49" fill="#E2E2F0" rx="12" ry="12" style="stroke:#181818;stroke-width:0.5;"/><text fill="#000000" font-family="sans-serif" font-size="14" lengthAdjust="spacing" textLength="42.1538" x="577.5005" y="699.0361">Server</text><path d="M581.0774,707.1381 L581.0774,731.1381 M581.0774,719.1381 L598.0774,719.1381 " fill="none" style="stroke:#181818;stroke-width:0.5;"/><ellipse cx="610.0774" cy="719.1381" fill="#E2E2F0" rx="12" ry="12" style="stroke:#181818;stroke-width:0.5;"/><rect fill="#EEEEEE" height="3" style="stroke:#EEEEEE;stroke-width:1.0;" width="631.0774" x="0" y="115.9209"/><line style="stroke:#000000;stroke-width:1.0;" x1="0" x2="631.0774" y1="115.9209" y2="115.9209"/><line style="stroke:#000000;stroke-width:1.0;" x1="0" x2="631.0774" y1="118.9209" y2="118.9209"/><rect fill="#EEEEEE" height="25.706" style="stroke:#000000;stroke-width:2.0;" width="135.3031" x="247.8871" y="104.0679"/><text fill="#000000" font-family="sans-serif" font-size="13" font-weight="bold" lengthAdjust="spacing" textLength="117.9231" x="253.8871" y="121.9649">`DailyScreen` case</text><polygon fill="#181818" points="589.5774,159.4799,599.5774,163.4799,589.5774,167.4799,593.5774,163.4799" style="stroke:#181818;stroke-width:1.0;"/><line style="stroke:#181818;stroke-width:1.0;" x1="23.3089" x2="595.5774" y1="163.4799" y2="163.4799"/><text fill="#000000" font-family="sans-serif" font-size="13" lengthAdjust="spacing" textLength="123.1621" x="30.3089" y="157.6709">&#171;get&#187; \daily_courses</text><polygon fill="#181818" points="34.3089,191.186,24.3089,195.186,34.3089,199.186,30.3089,195.186" style="stroke:#181818;stroke-width:1.0;"/><line style="stroke:#181818;stroke-width:1.0;stroke-dasharray:2.0,2.0;" x1="28.3089" x2="600.5774" y1="195.186" y2="195.186"/><text fill="#000000" font-family="sans-serif" font-size="13" lengthAdjust="spacing" textLength="195.9102" x="40.3089" y="189.377">list of all courses of current user</text><rect fill="#EEEEEE" height="3" style="stroke:#EEEEEE;stroke-width:1.0;" width="631.0774" x="0" y="225.039"/><line style="stroke:#000000;stroke-width:1.0;" x1="0" x2="631.0774" y1="225.039" y2="225.039"/><line style="stroke:#000000;stroke-width:1.0;" x1="0" x2="631.0774" y1="228.039" y2="228.039"/><rect fill="#EEEEEE" height="25.706" style="stroke:#000000;stroke-width:2.0;" width="132.8201" x="249.1286" y="213.186"/><text fill="#000000" font-family="sans-serif" font-size="13" font-weight="bold" lengthAdjust="spacing" textLength="115.4401" x="255.1286" y="231.083">`ChatScreen` case</text><polygon fill="#181818" points="589.5774,268.598,599.5774,272.598,589.5774,276.598,593.5774,272.598" style="stroke:#181818;stroke-width:1.0;"/><line style="stroke:#181818;stroke-width:1.0;" x1="23.3089" x2="595.5774" y1="272.598" y2="272.598"/><text fill="#000000" font-family="sans-serif" font-size="13" lengthAdjust="spacing" textLength="284.4142" x="30.3089" y="266.789">&#171;get&#187; /courses?page_number=...&amp;page_size=...</text><polygon fill="#181818" points="34.3089,300.304,24.3089,304.304,34.3089,308.304,30.3089,304.304" style="stroke:#181818;stroke-width:1.0;"/><line style="stroke:#181818;stroke-width:1.0;stroke-dasharray:2.0,2.0;" x1="28.3089" x2="600.5774" y1="304.304" y2="304.304"/><text fill="#000000" font-family="sans-serif" font-size="13" lengthAdjust="spacing" textLength="97.0061" x="40.3089" y="298.495">page of courses</text><polygon fill="#181818" points="589.5774,332.01,599.5774,336.01,589.5774,340.01,593.5774,336.01" style="stroke:#181818;stroke-width:1.0;"/><line style="stroke:#181818;stroke-width:1.0;" x1="23.3089" x2="595.5774" y1="336.01" y2="336.01"/><text fill="#000000" font-family="sans-serif" font-size="13" lengthAdjust="spacing" textLength="399.6203" x="30.3089" y="330.201">&#171;get&#187; /courses?search_pattern=...?page_number=...&amp;page_size=...</text><polygon fill="#181818" points="34.3089,363.716,24.3089,367.716,34.3089,371.716,30.3089,367.716" style="stroke:#181818;stroke-width:1.0;"/><line style="stroke:#181818;stroke-width:1.0;stroke-dasharray:2.0,2.0;" x1="28.3089" x2="600.5774" y1="367.716" y2="367.716"/><text fill="#000000" font-family="sans-serif" font-size="13" lengthAdjust="spacing" textLength="97.0061" x="40.3089" y="361.907">page of courses</text><polygon fill="#181818" points="589.5774,395.4221,599.5774,399.4221,589.5774,403.4221,593.5774,399.4221" style="stroke:#181818;stroke-width:1.0;"/><line style="stroke:#181818;stroke-width:1.0;" x1="23.3089" x2="595.5774" y1="399.4221" y2="399.4221"/><text fill="#000000" font-family="sans-serif" font-size="13" lengthAdjust="spacing" textLength="554.2684" x="30.3089" y="393.6131">&#171;get&#187; /messages?course_id=...&amp;direction=backward&amp;message_limit=...&amp;long_pooling=false</text><polygon fill="#181818" points="34.3089,427.1281,24.3089,431.1281,34.3089,435.1281,30.3089,431.1281" style="stroke:#181818;stroke-width:1.0;"/><line style="stroke:#181818;stroke-width:1.0;stroke-dasharray:2.0,2.0;" x1="28.3089" x2="600.5774" y1="431.1281" y2="431.1281"/><text fill="#000000" font-family="sans-serif" font-size="13" lengthAdjust="spacing" textLength="100.9711" x="40.3089" y="425.3191">List of messages</text><polygon fill="#181818" points="589.5774,458.8341,599.5774,462.8341,589.5774,466.8341,593.5774,462.8341" style="stroke:#181818;stroke-width:1.0;"/><line style="stroke:#181818;stroke-width:1.0;" x1="23.3089" x2="595.5774" y1="462.8341" y2="462.8341"/><text fill="#000000" font-family="sans-serif" font-size="13" lengthAdjust="spacing" textLength="300.3653" x="30.3089" y="457.0251">&#171;post&#187; /messages?course_id=... { "message": ".." }</text><polygon fill="#181818" points="34.3089,490.5401,24.3089,494.5401,34.3089,498.5401,30.3089,494.5401" style="stroke:#181818;stroke-width:1.0;"/><line style="stroke:#181818;stroke-width:1.0;stroke-dasharray:2.0,2.0;" x1="28.3089" x2="600.5774" y1="494.5401" y2="494.5401"/><text fill="#000000" font-family="sans-serif" font-size="13" lengthAdjust="spacing" textLength="22.308" x="40.3089" y="488.7311">200</text><rect fill="#EEEEEE" height="3" style="stroke:#EEEEEE;stroke-width:1.0;" width="631.0774" x="0" y="524.3931"/><line style="stroke:#000000;stroke-width:1.0;" x1="0" x2="631.0774" y1="524.3931" y2="524.3931"/><line style="stroke:#000000;stroke-width:1.0;" x1="0" x2="631.0774" y1="527.3931" y2="527.3931"/><rect fill="#EEEEEE" height="25.706" style="stroke:#000000;stroke-width:2.0;" width="193.8032" x="218.6371" y="512.5401"/><text fill="#000000" font-family="sans-serif" font-size="13" font-weight="bold" lengthAdjust="spacing" textLength="176.4232" x="224.6371" y="530.4371">`AboutTeacherScreen` case</text><polygon fill="#181818" points="589.5774,567.9521,599.5774,571.9521,589.5774,575.9521,593.5774,571.9521" style="stroke:#181818;stroke-width:1.0;"/><line style="stroke:#181818;stroke-width:1.0;" x1="23.3089" x2="595.5774" y1="571.9521" y2="571.9521"/><text fill="#000000" font-family="sans-serif" font-size="13" lengthAdjust="spacing" textLength="151.5541" x="30.3089" y="566.1431">&#171;get&#187; /user/&lt;teacher_id&gt;</text><polygon fill="#181818" points="34.3089,599.6582,24.3089,603.6582,34.3089,607.6582,30.3089,603.6582" style="stroke:#181818;stroke-width:1.0;"/><line style="stroke:#181818;stroke-width:1.0;stroke-dasharray:2.0,2.0;" x1="28.3089" x2="600.5774" y1="603.6582" y2="603.6582"/><text fill="#000000" font-family="sans-serif" font-size="13" lengthAdjust="spacing" textLength="23.725" x="40.3089" y="597.8492">info</text><polygon fill="#181818" points="589.5774,631.3642,599.5774,635.3642,589.5774,639.3642,593.5774,635.3642" style="stroke:#181818;stroke-width:1.0;"/><line style="stroke:#181818;stroke-width:1.0;" x1="23.3089" x2="595.5774" y1="635.3642" y2="635.3642"/><text fill="#000000" font-family="sans-serif" font-size="13" lengthAdjust="spacing" textLength="224.2112" x="30.3089" y="629.5552">&#171;get&#187; /courses?user_id=&lt;teacher_id&gt;</text><polygon fill="#181818" points="34.3089,663.0702,24.3089,667.0702,34.3089,671.0702,30.3089,667.0702" style="stroke:#181818;stroke-width:1.0;"/><line style="stroke:#181818;stroke-width:1.0;" x1="28.3089" x2="600.5774" y1="667.0702" y2="667.0702"/><text fill="#000000" font-family="sans-serif" font-size="13" lengthAdjust="spacing" textLength="87.4771" x="40.3089" y="661.2612">List of courses</text><!--SRC=[jP8nRy8m48Nt_8fJ1ZO2weX8KDMEtMYtIk5mZc3LsD6TqufM_U-D4xCGsh8mNkxT-vxoZCexXXSXJhQkjHNo4TR4xzsSv3bi7b6RurenaTs0GY7elYP9E81f4QKBM2vhyaK1hrNGbygrB2J9i8PffmmN2p1QFBWTe34GHM5KBJDP3wsSk0zxz6VOtwcpQBLgiARIjeSjSPvbsQIVHNzIcCPfmhh7nxZ_0uIGrRviq7jY6rnlnpoGI2UMrI0jTTNxLvf9UUrilaNrze5SJQAoDFgWVIyopjPbuvpHjivtQ8J6IPvY5oVEfIYDap-om1UaSPCk8Cso5Bx7dBlvVEZqldjX_fbGxOclxpQyYTdI3sSTk1WJjDsvAyeBJY7vHRFpltBgvmS0]--></g></svg>