<svg xmlns="http://www.w3.org/2000/svg" xmlns:xlink="http://www.w3.org/1999/xlink" contentStyleType="text/css" height="950px" preserveAspectRatio="none" style="width:807px;height:950px;background:#FFFFFF;" version="1.1" viewBox="0 0 807 950" width="807px" zoomAndPan="magnify"><title>Logical database entities</title><defs/><g><text fill="#000000" font-family="Verdana" font-size="22" font-weight="bold" lengthAdjust="spacing" textLength="307.7852" x="245.582" y="37.1182">Logical database entities</text><g id="elem_DayOfWeek"><rect fill="#FFFFFF" height="63.0439" style="stroke:#000000;stroke-width:1.0;" width="111.6953" x="557" y="880.7373"/><text fill="#000000" font-family="Verdana" font-size="14" lengthAdjust="spacing" textLength="82.2295" x="571.7329" y="896.8125">DayOfWeek</text><line style="stroke:#000000;stroke-width:1.0;" x1="558" x2="667.6953" y1="901.752" y2="901.752"/><text fill="#000000" font-family="Verdana" font-size="14" lengthAdjust="spacing" textLength="99.6953" x="563" y="919.8271">week_number</text><text fill="#000000" font-family="Verdana" font-size="14" lengthAdjust="spacing" textLength="88.6895" x="563" y="936.8418">day_number</text></g><g id="elem_Prizes"><rect fill="#FFFFFF" height="63.0439" style="stroke:#000000;stroke-width:1.0;" width="103.5811" x="12" y="626.7373"/><text fill="#000000" font-family="Verdana" font-size="14" lengthAdjust="spacing" textLength="41.248" x="43.1665" y="642.8125">Prizes</text><line style="stroke:#000000;stroke-width:1.0;" x1="13" x2="114.5811" y1="647.752" y2="647.752"/><text fill="#000000" font-family="Verdana" font-size="14" lengthAdjust="spacing" textLength="90.7129" x="18" y="665.8271">name: string</text><text fill="#000000" font-family="Verdana" font-size="14" lengthAdjust="spacing" textLength="91.5811" x="18" y="682.8418">photo: string</text></g><g id="elem_User"><rect fill="#FFFFFF" height="80.0586" style="stroke:#000000;stroke-width:1.0;" width="168.1465" x="536" y="199.7373"/><text fill="#000000" font-family="Verdana" font-size="14" lengthAdjust="spacing" textLength="31.8555" x="604.1455" y="215.8125">User</text><line style="stroke:#000000;stroke-width:1.0;" x1="537" x2="703.1465" y1="220.752" y2="220.752"/><text fill="#000000" font-family="Verdana" font-size="14" lengthAdjust="spacing" textLength="85.251" x="542" y="238.8271">login: string</text><text fill="#000000" font-family="Verdana" font-size="14" lengthAdjust="spacing" textLength="156.1465" x="542" y="255.8418">password: hash &amp; salt</text><text fill="#000000" font-family="Verdana" font-size="14" lengthAdjust="spacing" textLength="119.1572" x="542" y="272.8564">photo_url: string</text></g><g id="elem_Message"><rect fill="#FFFFFF" height="63.0439" style="stroke:#000000;stroke-width:1.0;" width="206.585" x="516.5" y="59.7373"/><text fill="#000000" font-family="Verdana" font-size="14" lengthAdjust="spacing" textLength="60.1973" x="589.6938" y="75.8125">Message</text><line style="stroke:#000000;stroke-width:1.0;" x1="517.5" x2="722.085" y1="80.752" y2="80.752"/><text fill="#000000" font-family="Verdana" font-size="14" lengthAdjust="spacing" textLength="111.665" x="522.5" y="98.8271">contents: string</text><text fill="#000000" font-family="Verdana" font-size="14" lengthAdjust="spacing" textLength="194.585" x="522.5" y="115.8418">date_of_creation: Datetime</text></g><g id="elem_Teacher"><rect fill="#FFFFFF" height="37.0146" style="stroke:#000000;stroke-width:1.0;" width="69.8428" x="585" y="369.7373"/><text fill="#000000" font-family="Verdana" font-size="14" lengthAdjust="spacing" textLength="55.8428" x="592" y="385.8125">Teacher</text><line style="stroke:#000000;stroke-width:1.0;" x1="586" x2="653.8428" y1="390.752" y2="390.752"/></g><g id="elem_Student"><rect fill="#FFFFFF" height="46.0293" style="stroke:#000000;stroke-width:1.0;" width="78.8965" x="179.5" y="365.2373"/><text fill="#000000" font-family="Verdana" font-size="14" lengthAdjust="spacing" textLength="55.3848" x="191.2559" y="381.3125">Student</text><line style="stroke:#000000;stroke-width:1.0;" x1="180.5" x2="257.3965" y1="386.252" y2="386.252"/><text fill="#000000" font-family="Verdana" font-size="14" lengthAdjust="spacing" textLength="66.8965" x="185.5" y="404.3271">score: int</text></g><g id="elem_Course"><rect fill="#FFFFFF" height="37.0146" style="stroke:#000000;stroke-width:1.0;" width="62.7402" x="581.5" y="766.7373"/><text fill="#000000" font-family="Verdana" font-size="14" lengthAdjust="spacing" textLength="48.7402" x="588.5" y="782.8125">Course</text><line style="stroke:#000000;stroke-width:1.0;" x1="582.5" x2="643.2402" y1="787.752" y2="787.752"/></g><g id="elem_Group"><rect fill="#FFFFFF" height="46.0293" style="stroke:#000000;stroke-width:1.0;" width="102.7129" x="288.5" y="635.2373"/><text fill="#000000" font-family="Verdana" font-size="14" lengthAdjust="spacing" textLength="42.9092" x="318.4019" y="651.3125">Group</text><line style="stroke:#000000;stroke-width:1.0;" x1="289.5" x2="390.2129" y1="656.252" y2="656.252"/><text fill="#000000" font-family="Verdana" font-size="14" lengthAdjust="spacing" textLength="90.7129" x="294.5" y="674.3271">name: string</text></g><g id="elem_Relation"><rect fill="#FFFFFF" height="63.0439" style="stroke:#000000;stroke-width:1.0;" width="141.1514" x="344.5" y="356.7373"/><text fill="#000000" font-family="Verdana" font-size="14" lengthAdjust="spacing" textLength="57.0391" x="386.5562" y="372.8125">Relation</text><line style="stroke:#000000;stroke-width:1.0;" x1="345.5" x2="484.6514" y1="377.752" y2="377.752"/><text fill="#000000" font-family="Verdana" font-size="14" lengthAdjust="spacing" textLength="129.1514" x="350.5" y="395.8271">kind: RelationKind</text><text fill="#000000" font-family="Verdana" font-size="14" lengthAdjust="spacing" textLength="106.6338" x="350.5" y="412.8418">date: Datetime</text></g><g id="elem_Opinion"><rect fill="#FFFFFF" height="131.1025" style="stroke:#000000;stroke-width:1.0;" width="149.9492" x="651" y="449.7373"/><text fill="#000000" font-family="Verdana" font-size="14" lengthAdjust="spacing" textLength="53.6416" x="699.1538" y="465.8125">Opinion</text><line style="stroke:#000000;stroke-width:1.0;" x1="652" x2="799.9492" y1="470.752" y2="470.752"/><text fill="#000000" font-family="Verdana" font-size="14" lengthAdjust="spacing" textLength="105.3623" x="657" y="488.8271">simplicity: 1..5</text><text fill="#000000" font-family="Verdana" font-size="14" lengthAdjust="spacing" textLength="99.2373" x="657" y="505.8418">actuality: 1..5</text><text fill="#000000" font-family="Verdana" font-size="14" lengthAdjust="spacing" textLength="108.9238" x="657" y="522.8564">involment: 1..5</text><text fill="#000000" font-family="Verdana" font-size="14" lengthAdjust="spacing" textLength="78.5996" x="657" y="539.8711">mood: 1..5</text><text fill="#000000" font-family="Verdana" font-size="14" lengthAdjust="spacing" textLength="128.3926" x="657" y="556.8857">description: string</text><text fill="#000000" font-family="Verdana" font-size="14" lengthAdjust="spacing" textLength="137.9492" x="657" y="573.9004">datetime: Datetime</text></g><!--class RelationKind--><g id="elem_RelationKind"><rect codeLine="62" fill="#FFFFFF" height="95.0439" id="RelationKind" rx="2.5" ry="2.5" style="stroke:#000000;stroke-width:1.0;" width="116.1631" x="427" y="610.7373"/><ellipse cx="440" cy="624.7373" fill="#FFFFFF" rx="9" ry="9" style="stroke:#000000;stroke-width:1.0;"/><path d="M435.7656,619.8311 L435.7656,621.2217 L437.1719,621.2217 L437.1719,628.3467 L435.7656,628.3467 L435.7656,629.7373 L444.4063,629.7373 L444.4063,626.0498 L442.9844,626.0498 L442.9063,628.3467 L438.6563,628.3467 L438.6563,625.2217 L440.6563,625.2217 L440.6563,626.4248 L442.0781,626.4248 L442.0781,622.5967 L440.6563,622.5967 L440.6563,623.8154 L438.6563,623.8154 L438.6563,621.2217 L442.75,621.2217 L442.9063,623.5029 L444.3125,623.5029 L444.2344,619.8311 L435.7656,619.8311 Z " fill="#000000"/><text fill="#000000" font-family="Verdana" font-size="14" lengthAdjust="spacing" textLength="88.1631" x="452" y="630.3052">RelationKind</text><line style="stroke:#000000;stroke-width:1.0;" x1="428" x2="542.1631" y1="638.7373" y2="638.7373"/><text fill="#000000" font-family="Verdana" font-size="14" lengthAdjust="spacing" textLength="35.5537" x="433" y="656.8125">Likes</text><text fill="#000000" font-family="Verdana" font-size="14" lengthAdjust="spacing" textLength="53.5254" x="433" y="673.8271">Dislikes</text><text fill="#000000" font-family="Verdana" font-size="14" lengthAdjust="spacing" textLength="53.5801" x="433" y="690.8418">Ignores</text><line style="stroke:#000000;stroke-width:1.0;" x1="428" x2="542.1631" y1="697.7813" y2="697.7813"/></g><!--link Course to DayOfWeek--><g id="link_Course_DayOfWeek"><path codeLine="41" d="M613,803.8773 C613,823.7973 613,850.5673 613,874.6773 " fill="none" id="Course-to-DayOfWeek" style="stroke:#000000;stroke-width:1.0;"/><polygon fill="#000000" points="613,880.6773,617,871.6773,613,875.6773,609,871.6773,613,880.6773" style="stroke:#000000;stroke-width:1.0;"/><text fill="#000000" font-family="Verdana" font-size="13" lengthAdjust="spacing" textLength="82.1196" x="614" y="847.8071">Happends at</text><text fill="#000000" font-family="Verdana" font-size="13" lengthAdjust="spacing" textLength="8.2646" x="603.902" y="824.741">*</text><text fill="#000000" font-family="Verdana" font-size="13" lengthAdjust="spacing" textLength="8.2646" x="604.1408" y="869.8018">*</text></g><!--link Relation to RelationKind--><g id="link_Relation_RelationKind"><path codeLine="68" d="M423.03,419.9773 C435.24,466.7273 457.0437,550.2121 471.3337,604.9221 " fill="none" id="Relation-to-RelationKind" style="stroke:#000000;stroke-width:1.0;"/><polygon fill="#000000" points="472.85,610.7273,474.4457,601.0086,471.5864,605.8896,466.7054,603.0303,472.85,610.7273" style="stroke:#000000;stroke-width:1.0;"/><text fill="#000000" font-family="Verdana" font-size="13" lengthAdjust="spacing" textLength="71.9063" x="465" y="520.8071">References</text><text fill="#000000" font-family="Verdana" font-size="13" lengthAdjust="spacing" textLength="8.2646" x="415.8346" y="440.8469">*</text><text fill="#000000" font-family="Verdana" font-size="13" lengthAdjust="spacing" textLength="8.2646" x="462.2842" y="600.0901">1</text></g><!--reverse link Message to User--><g id="link_Message_User"><path codeLine="70" d="M620,128.9473 C620,151.2673 620,175.6473 620,199.6873 " fill="none" id="Message-backto-User" style="stroke:#000000;stroke-width:1.0;"/><polygon fill="#000000" points="620,122.9473,616,131.9473,620,127.9473,624,131.9473,620,122.9473" style="stroke:#000000;stroke-width:1.0;"/><text fill="#000000" font-family="Verdana" font-size="13" lengthAdjust="spacing" textLength="90.7588" x="621" y="166.8071">Creates many</text><text fill="#000000" font-family="Verdana" font-size="13" lengthAdjust="spacing" textLength="8.2646" x="611.2794" y="143.811">*</text></g><!--reverse link User to Student--><g id="link_User_Student"><path codeLine="72" d="M519.0332,277.6247 C433.9432,308.7147 322.94,349.2673 258.74,372.7173 " fill="none" id="User-backto-Student" style="stroke:#000000;stroke-width:1.0;"/><polygon fill="none" points="535.94,271.4473,516.9741,271.9891,521.0923,283.2603,535.94,271.4473" style="stroke:#000000;stroke-width:1.0;"/></g><!--reverse link User to Teacher--><g id="link_User_Teacher"><path codeLine="73" d="M620,297.9973 C620,327.1573 620,347.5373 620,369.5973 " fill="none" id="User-backto-Teacher" style="stroke:#000000;stroke-width:1.0;"/><polygon fill="none" points="620,279.9973,614,297.9973,626,297.9973,620,279.9973" style="stroke:#000000;stroke-width:1.0;"/></g><!--link Student to Prizes--><g id="link_Student_Prizes"><path codeLine="75" d="M179.29,397.7273 C150.65,406.0173 113.54,421.6173 93,449.7373 C54.59,502.3073 55.141,576.8343 59.301,620.5043 " fill="none" id="Student-to-Prizes" style="stroke:#000000;stroke-width:1.0;"/><polygon fill="#000000" points="59.87,626.4773,62.9985,617.1385,59.3958,621.4998,55.0346,617.8972,59.87,626.4773" style="stroke:#000000;stroke-width:1.0;"/><text fill="#000000" font-family="Verdana" font-size="13" lengthAdjust="spacing" textLength="65.292" x="94" y="520.8071">Has many</text><text fill="#000000" font-family="Verdana" font-size="13" lengthAdjust="spacing" textLength="8.2646" x="163.2649" y="396.235">*</text><text fill="#000000" font-family="Verdana" font-size="13" lengthAdjust="spacing" textLength="8.2646" x="50.1663" y="616.0416">*</text></g><!--link Student to Course--><g id="link_Student_Course"><path codeLine="76" d="M208.9,411.5673 C185,468.1473 132.17,618.8073 204,705.7373 C252.07,763.9073 487.7055,779.1513 575.2655,782.8913 " fill="none" id="Student-to-Course" style="stroke:#000000;stroke-width:1.0;"/><polygon fill="#000000" points="581.26,783.1473,572.4389,778.7669,576.2646,782.9339,572.0975,786.7596,581.26,783.1473" style="stroke:#000000;stroke-width:1.0;"/><text fill="#000000" font-family="Verdana" font-size="13" lengthAdjust="spacing" textLength="65.292" x="205" y="663.8071">Has many</text><text fill="#000000" font-family="Verdana" font-size="13" lengthAdjust="spacing" textLength="8.2646" x="197.508" y="432.2458">*</text><text fill="#000000" font-family="Verdana" font-size="13" lengthAdjust="spacing" textLength="8.2646" x="565.0558" y="779.0902">*</text></g><!--link Teacher to Course--><g id="link_Teacher_Course"><path codeLine="77" d="M619.26,406.7473 C617.71,444.1773 614.2,534.7573 613,610.7373 C612.1,667.6573 612.4746,729.0976 612.7646,760.5076 " fill="none" id="Teacher-to-Course" style="stroke:#000000;stroke-width:1.0;"/><polygon fill="#000000" points="612.82,766.5073,616.7367,757.4708,612.7738,761.5075,608.7371,757.5446,612.82,766.5073" style="stroke:#000000;stroke-width:1.0;"/><text fill="#000000" font-family="Verdana" font-size="13" lengthAdjust="spacing" textLength="56.2339" x="614" y="663.8071">Owns by</text><text fill="#000000" font-family="Verdana" font-size="13" lengthAdjust="spacing" textLength="8.2646" x="609.873" y="427.9028">1</text><text fill="#000000" font-family="Verdana" font-size="13" lengthAdjust="spacing" textLength="8.2646" x="603.5222" y="756.0184">*</text></g><!--link Student to Group--><g id="link_Student_Group"><path codeLine="79" d="M229.11,411.6273 C251.94,462.1973 304.8105,579.2991 327.5405,629.6291 " fill="none" id="Student-to-Group" style="stroke:#000000;stroke-width:1.0;"/><polygon fill="#000000" points="330.01,635.0973,329.9511,625.2486,327.952,630.5405,322.6602,628.5414,330.01,635.0973" style="stroke:#000000;stroke-width:1.0;"/><text fill="#000000" font-family="Verdana" font-size="13" lengthAdjust="spacing" textLength="68.7959" x="306" y="520.8071">Belongs to</text><text fill="#000000" font-family="Verdana" font-size="13" lengthAdjust="spacing" textLength="8.2646" x="222.6442" y="432.3204">*</text><text fill="#000000" font-family="Verdana" font-size="13" lengthAdjust="spacing" textLength="8.2646" x="318.1529" y="624.6579">1</text></g><!--link Student to Relation--><g id="link_Student_Relation"><path codeLine="81" d="M258.66,388.2373 C283.27,388.2373 309.6,388.2373 338.46,388.2373 " fill="none" id="Student-to-Relation" style="stroke:#000000;stroke-width:1.0;"/><polygon fill="#000000" points="344.46,388.2373,335.46,384.2373,339.46,388.2373,335.46,392.2373,344.46,388.2373" style="stroke:#000000;stroke-width:1.0;"/><text fill="#000000" font-family="Verdana" font-size="13" lengthAdjust="spacing" textLength="49.8164" x="277" y="382.3071">Creates</text><text fill="#000000" font-family="Verdana" font-size="13" lengthAdjust="spacing" textLength="8.2646" x="266.4697" y="385.0398">1</text><text fill="#000000" font-family="Verdana" font-size="13" lengthAdjust="spacing" textLength="8.2646" x="328.3134" y="385.5281">*</text></g><!--link Relation to Teacher--><g id="link_Relation_Teacher"><path codeLine="82" d="M485.55,388.2373 C519.02,388.2373 551.54,388.2373 578.75,388.2373 " fill="none" id="Relation-to-Teacher" style="stroke:#000000;stroke-width:1.0;"/><polygon fill="#000000" points="584.75,388.2373,575.75,384.2373,579.75,388.2373,575.75,392.2373,584.75,388.2373" style="stroke:#000000;stroke-width:1.0;"/><text fill="#000000" font-family="Verdana" font-size="13" lengthAdjust="spacing" textLength="63.0386" x="503.75" y="382.3071">Describes</text><text fill="#000000" font-family="Verdana" font-size="13" lengthAdjust="spacing" textLength="8.2646" x="493.7101" y="385.5281">*</text><text fill="#000000" font-family="Verdana" font-size="13" lengthAdjust="spacing" textLength="8.2646" x="568.6982" y="384.8412">1</text></g><!--link User to Opinion--><g id="link_User_Opinion"><path codeLine="84" d="M639.06,279.7573 C649.64,302.0573 662.7,330.6873 673,356.7373 C684.94,386.9173 694.7644,415.2815 704.1044,444.0015 " fill="none" id="User-to-Opinion" style="stroke:#000000;stroke-width:1.0;"/><polygon fill="#000000" points="705.96,449.7073,706.9805,439.9115,704.4137,444.9524,699.3727,442.3856,705.96,449.7073" style="stroke:#000000;stroke-width:1.0;"/><text fill="#000000" font-family="Verdana" font-size="13" lengthAdjust="spacing" textLength="24.3496" x="660" y="323.8071">Has</text></g><!--link Opinion to Course--><g id="link_Opinion_Course"><path codeLine="85" d="M717.43,581.1073 C710.63,618.9573 698.85,666.7773 679,705.7373 C667.04,729.2173 651.0998,747.5518 636.1898,762.4118 " fill="none" id="Opinion-to-Course" style="stroke:#000000;stroke-width:1.0;"/><polygon fill="#000000" points="631.94,766.6473,641.1383,763.1272,635.4815,763.1177,635.491,757.4609,631.94,766.6473" style="stroke:#000000;stroke-width:1.0;"/><text fill="#000000" font-family="Verdana" font-size="13" lengthAdjust="spacing" textLength="71.9063" x="711" y="663.8071">References</text></g><!--SRC=[RL9DRzim3BthLsWvx30W1NhOnIXsM8DknTfbs0Ts36YRiTN8aY7A2xoF_pvAaHMxZIyMAVBfyV7HGPaU77HoWtiOjB-pnd-63kMTGtoqnefNlaMEUmtA2E6LroWVRACgqB863oKGIZHyeP24iEKJLbvkODpkVo8Uv1yX-JloSMU6haGNunh6AVoNcxuuzHifTHXcKKZoJfac9lhMUfipvwuVX2xrQEPbbar0TBIkBcGBrChNaa1xSSRR3KvVm7n48cWmmLOi2az82sIU7NTslwiSWbUMdzrmngiEPpZV4Qesqfibl_cXPhW4JfLrFAWoVbPoQmT7cDfIi7gpaklrk_ZFyXRo8_Gzcfea-Dp-mTcXlwJZ-OMlg2FjLCK-O8scv2UEyf0N1zlsofoxINMzLfNoOo6lhwxUnYHKVW2zp2dpo-gEXv_bEclhMLWZLKxr9qcVwHr8BEa8P1SjU2TA3-h0TWodZIATW_l6iDmKMhC2MTZhrG8fwB57XwOAnfui4QflrkjekqBUXkspPpimen3HYZT_-JRjU9P9LX1YMlzydoVdXsKcg6LHgZePOLOrsIimVr6rFHgIvNZXGQwE3YdaUzJMD2IzdPK5CAUQrYV0IPCyxJFfSYqt9aQyfBZ6CYWNDGWFJwQ94uWf2ZSJvvdW_m40]--></g></svg>