<svg xmlns="http://www.w3.org/2000/svg" xmlns:xlink="http://www.w3.org/1999/xlink" contentStyleType="text/css" height="872px" preserveAspectRatio="none" style="width:858px;height:872px;background:#FFFFFF;" version="1.1" viewBox="0 0 858 872" width="858px" zoomAndPan="magnify"><title>Logical database entities</title><defs/><g><text fill="#000000" font-family="Verdana" font-size="22" font-weight="bold" lengthAdjust="spacing" textLength="307.7852" x="270.9744" y="37.1182">Logical database entities</text><g id="elem_DayOfWeek"><rect fill="#FFFFFF" height="63.0439" style="stroke:#000000;stroke-width:1.0;" width="111.6953" x="453.5" y="802.7373"/><text fill="#000000" font-family="Verdana" font-size="14" lengthAdjust="spacing" textLength="82.2295" x="468.2329" y="818.8125">DayOfWeek</text><line style="stroke:#000000;stroke-width:1.0;" x1="454.5" x2="564.1953" y1="823.752" y2="823.752"/><text fill="#000000" font-family="Verdana" font-size="14" lengthAdjust="spacing" textLength="99.6953" x="459.5" y="841.8271">week_number</text><text fill="#000000" font-family="Verdana" font-size="14" lengthAdjust="spacing" textLength="88.6895" x="459.5" y="858.8418">day_number</text></g><g id="elem_Prize"><rect fill="#FFFFFF" height="63.0439" style="stroke:#000000;stroke-width:1.0;" width="103.5811" x="335.5" y="514.7373"/><text fill="#000000" font-family="Verdana" font-size="14" lengthAdjust="spacing" textLength="33.9541" x="370.3135" y="530.8125">Prize</text><line style="stroke:#000000;stroke-width:1.0;" x1="336.5" x2="438.0811" y1="535.752" y2="535.752"/><text fill="#000000" font-family="Verdana" font-size="14" lengthAdjust="spacing" textLength="90.7129" x="341.5" y="553.8271">name: string</text><text fill="#000000" font-family="Verdana" font-size="14" lengthAdjust="spacing" textLength="91.5811" x="341.5" y="570.8418">photo: string</text></g><g id="elem_User"><rect fill="#FFFFFF" height="80.0586" style="stroke:#000000;stroke-width:1.0;" width="168.1465" x="507.5" y="199.7373"/><text fill="#000000" font-family="Verdana" font-size="14" lengthAdjust="spacing" textLength="31.8555" x="575.6455" y="215.8125">User</text><line style="stroke:#000000;stroke-width:1.0;" x1="508.5" x2="674.6465" y1="220.752" y2="220.752"/><text fill="#000000" font-family="Verdana" font-size="14" lengthAdjust="spacing" textLength="85.251" x="513.5" y="238.8271">login: string</text><text fill="#000000" font-family="Verdana" font-size="14" lengthAdjust="spacing" textLength="156.1465" x="513.5" y="255.8418">password: hash &amp; salt</text><text fill="#000000" font-family="Verdana" font-size="14" lengthAdjust="spacing" textLength="119.1572" x="513.5" y="272.8564">photo_url: string</text></g><g id="elem_Message"><rect fill="#FFFFFF" height="63.0439" style="stroke:#000000;stroke-width:1.0;" width="206.585" x="488" y="59.7373"/><text fill="#000000" font-family="Verdana" font-size="14" lengthAdjust="spacing" textLength="60.1973" x="561.1938" y="75.8125">Message</text><line style="stroke:#000000;stroke-width:1.0;" x1="489" x2="693.585" y1="80.752" y2="80.752"/><text fill="#000000" font-family="Verdana" font-size="14" lengthAdjust="spacing" textLength="111.665" x="494" y="98.8271">contents: string</text><text fill="#000000" font-family="Verdana" font-size="14" lengthAdjust="spacing" textLength="194.585" x="494" y="115.8418">date_of_creation: Datetime</text></g><g id="elem_Teacher"><rect fill="#FFFFFF" height="37.0146" style="stroke:#000000;stroke-width:1.0;" width="69.8428" x="759.5" y="353.7373"/><text fill="#000000" font-family="Verdana" font-size="14" lengthAdjust="spacing" textLength="55.8428" x="766.5" y="369.8125">Teacher</text><line style="stroke:#000000;stroke-width:1.0;" x1="760.5" x2="828.3428" y1="374.752" y2="374.752"/></g><g id="elem_Student"><rect fill="#FFFFFF" height="46.0293" style="stroke:#000000;stroke-width:1.0;" width="78.8965" x="352" y="349.2373"/><text fill="#000000" font-family="Verdana" font-size="14" lengthAdjust="spacing" textLength="55.3848" x="363.7559" y="365.3125">Student</text><line style="stroke:#000000;stroke-width:1.0;" x1="353" x2="429.8965" y1="370.252" y2="370.252"/><text fill="#000000" font-family="Verdana" font-size="14" lengthAdjust="spacing" textLength="66.8965" x="358" y="388.3271">score: int</text></g><g id="elem_Course"><rect fill="#FFFFFF" height="37.0146" style="stroke:#000000;stroke-width:1.0;" width="62.7402" x="478" y="688.7373"/><text fill="#000000" font-family="Verdana" font-size="14" lengthAdjust="spacing" textLength="48.7402" x="485" y="704.8125">Course</text><line style="stroke:#000000;stroke-width:1.0;" x1="479" x2="539.7402" y1="709.752" y2="709.752"/></g><g id="elem_Group"><rect fill="#FFFFFF" height="46.0293" style="stroke:#000000;stroke-width:1.0;" width="102.7129" x="12" y="523.2373"/><text fill="#000000" font-family="Verdana" font-size="14" lengthAdjust="spacing" textLength="42.9092" x="41.9019" y="539.3125">Group</text><line style="stroke:#000000;stroke-width:1.0;" x1="13" x2="113.7129" y1="544.252" y2="544.252"/><text fill="#000000" font-family="Verdana" font-size="14" lengthAdjust="spacing" textLength="90.7129" x="18" y="562.3271">name: string</text></g><g id="elem_Relation"><rect fill="#FFFFFF" height="63.0439" style="stroke:#000000;stroke-width:1.0;" width="141.1514" x="519" y="340.7373"/><text fill="#000000" font-family="Verdana" font-size="14" lengthAdjust="spacing" textLength="57.0391" x="561.0562" y="356.8125">Relation</text><line style="stroke:#000000;stroke-width:1.0;" x1="520" x2="659.1514" y1="361.752" y2="361.752"/><text fill="#000000" font-family="Verdana" font-size="14" lengthAdjust="spacing" textLength="129.1514" x="525" y="379.8271">kind: RelationKind</text><text fill="#000000" font-family="Verdana" font-size="14" lengthAdjust="spacing" textLength="106.6338" x="525" y="396.8418">date: Datetime</text></g><g id="elem_Opinion"><rect fill="#FFFFFF" height="131.1025" style="stroke:#000000;stroke-width:1.0;" width="149.9492" x="150.5" y="480.7373"/><text fill="#000000" font-family="Verdana" font-size="14" lengthAdjust="spacing" textLength="53.6416" x="198.6538" y="496.8125">Opinion</text><line style="stroke:#000000;stroke-width:1.0;" x1="151.5" x2="299.4492" y1="501.752" y2="501.752"/><text fill="#000000" font-family="Verdana" font-size="14" lengthAdjust="spacing" textLength="105.3623" x="156.5" y="519.8271">simplicity: 1..5</text><text fill="#000000" font-family="Verdana" font-size="14" lengthAdjust="spacing" textLength="99.2373" x="156.5" y="536.8418">actuality: 1..5</text><text fill="#000000" font-family="Verdana" font-size="14" lengthAdjust="spacing" textLength="108.9238" x="156.5" y="553.8564">involment: 1..5</text><text fill="#000000" font-family="Verdana" font-size="14" lengthAdjust="spacing" textLength="78.5996" x="156.5" y="570.8711">mood: 1..5</text><text fill="#000000" font-family="Verdana" font-size="14" lengthAdjust="spacing" textLength="128.3926" x="156.5" y="587.8857">description: string</text><text fill="#000000" font-family="Verdana" font-size="14" lengthAdjust="spacing" textLength="137.9492" x="156.5" y="604.9004">datetime: Datetime</text></g><!--class RelationKind--><g id="elem_RelationKind"><rect codeLine="62" fill="#FFFFFF" height="95.0439" id="RelationKind" rx="2.5" ry="2.5" style="stroke:#000000;stroke-width:1.0;" width="116.1631" x="611.5" y="498.7373"/><ellipse cx="624.5" cy="512.7373" fill="#FFFFFF" rx="9" ry="9" style="stroke:#000000;stroke-width:1.0;"/><path d="M620.2656,507.8311 L620.2656,509.2217 L621.6719,509.2217 L621.6719,516.3467 L620.2656,516.3467 L620.2656,517.7373 L628.9063,517.7373 L628.9063,514.0498 L627.4844,514.0498 L627.4063,516.3467 L623.1563,516.3467 L623.1563,513.2217 L625.1563,513.2217 L625.1563,514.4248 L626.5781,514.4248 L626.5781,510.5967 L625.1563,510.5967 L625.1563,511.8154 L623.1563,511.8154 L623.1563,509.2217 L627.25,509.2217 L627.4063,511.5029 L628.8125,511.5029 L628.7344,507.8311 L620.2656,507.8311 Z " fill="#000000"/><text fill="#000000" font-family="Verdana" font-size="14" lengthAdjust="spacing" textLength="88.1631" x="636.5" y="518.3052">RelationKind</text><line style="stroke:#000000;stroke-width:1.0;" x1="612.5" x2="726.6631" y1="526.7373" y2="526.7373"/><text fill="#000000" font-family="Verdana" font-size="14" lengthAdjust="spacing" textLength="35.5537" x="617.5" y="544.8125">Likes</text><text fill="#000000" font-family="Verdana" font-size="14" lengthAdjust="spacing" textLength="53.5254" x="617.5" y="561.8271">Dislikes</text><text fill="#000000" font-family="Verdana" font-size="14" lengthAdjust="spacing" textLength="53.5801" x="617.5" y="578.8418">Ignores</text><line style="stroke:#000000;stroke-width:1.0;" x1="612.5" x2="726.6631" y1="585.7813" y2="585.7813"/></g><!--link Course to DayOfWeek--><g id="link_Course_DayOfWeek"><path codeLine="41" d="M509.5,725.8773 C509.5,745.7973 509.5,772.5673 509.5,796.6773 " fill="none" id="Course-to-DayOfWeek" style="stroke:#000000;stroke-width:1.0;"/><polygon fill="#000000" points="509.5,802.6773,513.5,793.6773,509.5,797.6773,505.5,793.6773,509.5,802.6773" style="stroke:#000000;stroke-width:1.0;"/><text fill="#000000" font-family="Verdana" font-size="13" lengthAdjust="spacing" textLength="82.1196" x="510.5" y="769.8071">Happends at</text><text fill="#000000" font-family="Verdana" font-size="13" lengthAdjust="spacing" textLength="8.2646" x="500.402" y="746.741">*</text><text fill="#000000" font-family="Verdana" font-size="13" lengthAdjust="spacing" textLength="8.2646" x="500.6408" y="791.8018">*</text></g><!--link Relation to RelationKind--><g id="link_Relation_RelationKind"><path codeLine="68" d="M603.8,403.9873 C616.03,430.2673 631.2698,463.0469 645.2498,493.1069 " fill="none" id="Relation-to-RelationKind" style="stroke:#000000;stroke-width:1.0;"/><polygon fill="#000000" points="647.78,498.5473,647.6117,488.6999,645.6715,494.0136,640.3578,492.0735,647.78,498.5473" style="stroke:#000000;stroke-width:1.0;"/><text fill="#000000" font-family="Verdana" font-size="13" lengthAdjust="spacing" textLength="71.9063" x="625.5" y="447.8071">References</text><text fill="#000000" font-family="Verdana" font-size="13" lengthAdjust="spacing" textLength="8.2646" x="597.839" y="424.8588">*</text><text fill="#000000" font-family="Verdana" font-size="13" lengthAdjust="spacing" textLength="8.2646" x="635.689" y="487.8814">1</text></g><!--reverse link Message to User--><g id="link_Message_User"><path codeLine="70" d="M591.5,128.9473 C591.5,151.2673 591.5,175.6473 591.5,199.6873 " fill="none" id="Message-backto-User" style="stroke:#000000;stroke-width:1.0;"/><polygon fill="#000000" points="591.5,122.9473,587.5,131.9473,591.5,127.9473,595.5,131.9473,591.5,122.9473" style="stroke:#000000;stroke-width:1.0;"/><text fill="#000000" font-family="Verdana" font-size="13" lengthAdjust="spacing" textLength="90.7588" x="592.5" y="166.8071">Creates many</text><text fill="#000000" font-family="Verdana" font-size="13" lengthAdjust="spacing" textLength="8.2646" x="582.7794" y="143.811">*</text></g><!--reverse link User to Student--><g id="link_User_Student"><path codeLine="72" d="M516.4164,289.7253 C481.6664,312.4053 454.28,330.2673 425.3,349.1873 " fill="none" id="User-backto-Student" style="stroke:#000000;stroke-width:1.0;"/><polygon fill="none" points="531.49,279.8873,513.137,284.7007,519.6957,294.7498,531.49,279.8873" style="stroke:#000000;stroke-width:1.0;"/></g><!--reverse link User to Teacher--><g id="link_User_Teacher"><path codeLine="73" d="M667.5513,289.6207 C705.7413,314.1707 737.96,334.8973 767.21,353.6973 " fill="none" id="User-backto-Teacher" style="stroke:#000000;stroke-width:1.0;"/><polygon fill="none" points="652.41,279.8873,664.3069,294.6679,670.7958,284.5736,652.41,279.8873" style="stroke:#000000;stroke-width:1.0;"/></g><!--link Student to Prize--><g id="link_Student_Prize"><path codeLine="75" d="M390.99,395.3673 C390.28,425.6773 389.1483,474.2189 388.3583,508.4789 " fill="none" id="Student-to-Prize" style="stroke:#000000;stroke-width:1.0;"/><polygon fill="#000000" points="388.22,514.4773,392.4264,505.5719,388.3353,509.4786,384.4285,505.3875,388.22,514.4773" style="stroke:#000000;stroke-width:1.0;"/><text fill="#000000" font-family="Verdana" font-size="13" lengthAdjust="spacing" textLength="65.292" x="390.5" y="447.8071">Has many</text><text fill="#000000" font-family="Verdana" font-size="13" lengthAdjust="spacing" textLength="8.2646" x="381.8815" y="416.3847">*</text><text fill="#000000" font-family="Verdana" font-size="13" lengthAdjust="spacing" textLength="8.2646" x="379.5773" y="504.0416">*</text></g><!--link Student to Course--><g id="link_Student_Course"><path codeLine="76" d="M427.99,395.3373 C441.54,405.3873 455.73,418.4673 464.5,433.7373 C513.56,519.1873 513.1369,637.0542 510.9569,682.5942 " fill="none" id="Student-to-Course" style="stroke:#000000;stroke-width:1.0;"/><polygon fill="#000000" points="510.67,688.5873,515.0958,679.7889,510.9091,683.593,507.1049,679.4063,510.67,688.5873" style="stroke:#000000;stroke-width:1.0;"/><text fill="#000000" font-family="Verdana" font-size="13" lengthAdjust="spacing" textLength="65.292" x="510.5" y="551.8071">Has many</text><text fill="#000000" font-family="Verdana" font-size="13" lengthAdjust="spacing" textLength="8.2646" x="428.3627" y="416.347">*</text><text fill="#000000" font-family="Verdana" font-size="13" lengthAdjust="spacing" textLength="8.2646" x="501.8194" y="678.1249">*</text></g><!--link Teacher to Course--><g id="link_Teacher_Course"><path codeLine="77" d="M796.12,390.8873 C799.09,433.9573 800.67,545.7373 745.5,611.7373 C692.99,674.5473 598.6144,695.1324 547.3344,702.1624 " fill="none" id="Teacher-to-Course" style="stroke:#000000;stroke-width:1.0;"/><polygon fill="#000000" points="541.39,702.9773,550.8499,705.7179,546.3437,702.2982,549.7633,697.792,541.39,702.9773" style="stroke:#000000;stroke-width:1.0;"/><text fill="#000000" font-family="Verdana" font-size="13" lengthAdjust="spacing" textLength="56.2339" x="794.5" y="551.8071">Owns by</text><text fill="#000000" font-family="Verdana" font-size="13" lengthAdjust="spacing" textLength="8.2646" x="787.4828" y="411.7539">1</text><text fill="#000000" font-family="Verdana" font-size="13" lengthAdjust="spacing" textLength="8.2646" x="548.8464" y="698.7025">*</text></g><!--link Student to Group--><g id="link_Student_Group"><path codeLine="79" d="M351.68,384.7173 C298.98,401.0073 204.49,434.1373 133.5,480.7373 C115.13,492.7973 101.1495,505.452 87.9295,518.942 " fill="none" id="Student-to-Group" style="stroke:#000000;stroke-width:1.0;"/><polygon fill="#000000" points="83.73,523.2273,92.8862,519.599,87.2296,519.6562,87.1724,513.9996,83.73,523.2273" style="stroke:#000000;stroke-width:1.0;"/><text fill="#000000" font-family="Verdana" font-size="13" lengthAdjust="spacing" textLength="68.7959" x="214.5" y="447.8071">Belongs to</text><text fill="#000000" font-family="Verdana" font-size="13" lengthAdjust="spacing" textLength="8.2646" x="335.6346" y="383.7763">*</text><text fill="#000000" font-family="Verdana" font-size="13" lengthAdjust="spacing" textLength="8.2646" x="80.5786" y="512.4479">1</text></g><!--link Student to Relation--><g id="link_Student_Relation"><path codeLine="81" d="M431.09,372.2373 C456.15,372.2373 483.25,372.2373 512.72,372.2373 " fill="none" id="Student-to-Relation" style="stroke:#000000;stroke-width:1.0;"/><polygon fill="#000000" points="518.72,372.2373,509.72,368.2373,513.72,372.2373,509.72,376.2373,518.72,372.2373" style="stroke:#000000;stroke-width:1.0;"/><text fill="#000000" font-family="Verdana" font-size="13" lengthAdjust="spacing" textLength="49.8164" x="450.5" y="366.3071">Creates</text><text fill="#000000" font-family="Verdana" font-size="13" lengthAdjust="spacing" textLength="8.2646" x="438.8873" y="369.0398">1</text><text fill="#000000" font-family="Verdana" font-size="13" lengthAdjust="spacing" textLength="8.2646" x="502.5471" y="369.5281">*</text></g><!--link Relation to Teacher--><g id="link_Relation_Teacher"><path codeLine="82" d="M660.05,372.2373 C693.52,372.2373 726.04,372.2373 753.25,372.2373 " fill="none" id="Relation-to-Teacher" style="stroke:#000000;stroke-width:1.0;"/><polygon fill="#000000" points="759.25,372.2373,750.25,368.2373,754.25,372.2373,750.25,376.2373,759.25,372.2373" style="stroke:#000000;stroke-width:1.0;"/><text fill="#000000" font-family="Verdana" font-size="13" lengthAdjust="spacing" textLength="63.0386" x="678.25" y="366.3071">Describes</text><text fill="#000000" font-family="Verdana" font-size="13" lengthAdjust="spacing" textLength="8.2646" x="668.2101" y="369.5281">*</text><text fill="#000000" font-family="Verdana" font-size="13" lengthAdjust="spacing" textLength="8.2646" x="743.1982" y="368.8412">1</text></g><!--link Student to Opinion--><g id="link_Student_Opinion"><path codeLine="84" d="M370.14,395.3673 C349.39,416.8773 321.0164,446.2598 292.0564,476.2698 " fill="none" id="Student-to-Opinion" style="stroke:#000000;stroke-width:1.0;"/><polygon fill="#000000" points="287.89,480.5873,297.018,476.8887,291.362,476.9894,291.2613,471.3334,287.89,480.5873" style="stroke:#000000;stroke-width:1.0;"/><text fill="#000000" font-family="Verdana" font-size="13" lengthAdjust="spacing" textLength="24.3496" x="333.5" y="447.8071">Has</text></g><!--link Opinion to Course--><g id="link_Opinion_Course"><path codeLine="85" d="M300.57,600.5573 C306.57,604.4373 312.6,608.2073 318.5,611.7373 C372.62,644.1373 433.9007,672.8526 472.4507,690.0526 " fill="none" id="Opinion-to-Course" style="stroke:#000000;stroke-width:1.0;"/><polygon fill="#000000" points="477.93,692.4973,471.3408,685.1773,473.3639,690.46,468.0812,692.4831,477.93,692.4973" style="stroke:#000000;stroke-width:1.0;"/><text fill="#000000" font-family="Verdana" font-size="13" lengthAdjust="spacing" textLength="71.9063" x="406.5" y="655.8071">References</text></g><!--SRC=[RL9DRzim3BthLsWvx30W1NhOnIXsM8Dkmzfbs0Ts36YRiRN8aY7A2xAF_pvAbHIxZIyMAVBfyV7HGPaH70noWtkOjB-pnd-20UMTGtomneeNlaUEHmtA2E6LroZlRQSQqB853pKGIZHyeP24iFLFRBpSm6cx_u5ua7-4vE_8nvsPXXfTZ5iuvV1VQVhir6zC3OP9L9AyKwQBYR6ttfRCkUaxeKizcccPPHCG7QrhAza3zVAb9D1UdF5sazCNC1-G2BfCfM5DU41Q8FFekBFxNUCGlBByx8OpNWqum_c6qFIHtYpvrKyjmoLmQgpZGPNniv9REpd2r9Q2rQkLNA_Vn7zHjvBlOHpHj2J1b_PtpaxZ9HtFBtn17McdAhO1QvIJ7pagGruSR3igS-ucDOnQDSgVAdbzTVKw9g7n4-XbJfbVLWyy_2mtMDlEmXQfSMfybFI9te74aev0Dj62Tw9qhmxind3QAD8b-D0Pbfj2Qr6W27kzMY05FVReq3J1rzaIeVfclOwsg-Hjs3wI7C2SX8XMlFdBjsd7iqooWX1v_VDzHkE7NIQaPKqgUlJ1h2gxAn1_LhKz6fBrwS9xN1qDKictgAtfI7exAmjWJdMzJu1PaZBi4-LABJScHhoZkCKw29U1mzlPDd48aQDmasdF9FyF]--></g></svg>